HIERARCHY
ROOT hip
{
	OFFSET 0.000000 0.000000 0.000000 
	CHANNELS 6 Xposition Yposition Zposition Xrotation Zrotation Yrotation
	JOINT abdomen
	{
		OFFSET 0.000000 3.402643 0.000000 
		CHANNELS 3 Xrotation Zrotation Yrotation
		JOINT chest
		{
			OFFSET 0.000000 8.438565 -0.680529 
			CHANNELS 3 Xrotation Zrotation Yrotation
			JOINT neck
			{
				OFFSET 0.000000 10.207942 -0.272212 
				CHANNELS 3 Xrotation Zrotation Yrotation
				JOINT head
				{
					OFFSET 0.000000 3.130431 0.000000 
					CHANNELS 3 Xrotation Zrotation Yrotation
					End Site
					{
						OFFSET 0.000000 3.130435 0.000000 
					}
				}
			}
			JOINT lCollar
			{
				OFFSET 3.470700 6.669187 -0.816635 
				CHANNELS 3 Yrotation Zrotation Xrotation
				JOINT lShldr
				{
					OFFSET 3.198488 0.000000 0.000000 
					CHANNELS 3 Zrotation Yrotation Xrotation
					JOINT lForeArm
					{
						OFFSET 10.139888 0.000000 0.000000 
						CHANNELS 3 Yrotation Zrotation Xrotation
						JOINT lHand
						{
							OFFSET 8.370511 0.000000 0.000000 
							CHANNELS 3 Zrotation Yrotation Xrotation
							End Site
							{
								OFFSET 4.083176 0.000000 0.000000 
							}
						}
					}
				}
			}
			JOINT rCollar
			{
				OFFSET -3.470700 6.669187 -0.816635 
				CHANNELS 3 Yrotation Zrotation Xrotation
				JOINT rShldr
				{
					OFFSET -3.198488 0.000000 0.000000 
					CHANNELS 3 Zrotation Yrotation Xrotation
					JOINT rForeArm
					{
						OFFSET -10.139888 0.000000 0.000000 
						CHANNELS 3 Yrotation Zrotation Xrotation
						JOINT rHand
						{
							OFFSET -8.370511 0.000000 0.000000 
							CHANNELS 3 Zrotation Yrotation Xrotation
							End Site
							{
								OFFSET -4.083176 0.000000 0.000000 
							}
						}
					}
				}
			}
		}
	}
	JOINT lThigh
	{
		OFFSET 5.308129 -1.633274 1.361059 
		CHANNELS 3 Xrotation Zrotation Yrotation
		JOINT lShin
		{
			OFFSET -2.041588 -20.007561 0.000000 
			CHANNELS 3 Xrotation Zrotation Yrotation
			JOINT lFoot
			{
				OFFSET 0.000000 -19.190928 -1.224953 
				CHANNELS 3 Xrotation Yrotation Zrotation
				End Site
				{
					OFFSET 0.000000 -2.449906 4.627600 
				}
			}
		}
	}
	JOINT rThigh
	{
		OFFSET -5.308129 -1.633274 1.361059 
		CHANNELS 3 Xrotation Zrotation Yrotation
		JOINT rShin
		{
			OFFSET 2.041588 -20.007561 0.000000 
			CHANNELS 3 Xrotation Zrotation Yrotation
			JOINT rFoot
			{
				OFFSET 0.000000 -19.190928 -1.224953 
				CHANNELS 3 Xrotation Yrotation Zrotation
				End Site
				{
					OFFSET 0.000000 -2.449906 4.627600 
				}
			}
		}
	}
}
MOTION
Frames: 10
Frame Time: 0.033333
-1.749643 52.395153 -2.324757 -3.057139 1.033683 5.804180 0.000000 0.000000 0.000000 19.621370 -0.846275 5.469687 19.716290 -3.459651 -0.334731 -25.570499 7.761807 6.900204 -5.927353 1.123643 25.000000 -73.097969 -7.593178 -10.547368 -52.879570 -3.433499 81.239395 -15.952663 -5.487770 -56.721844 -9.897242 5.820509 25.000000 48.037056 16.525078 56.860783 47.480347 -42.108692 39.255646 36.018959 -5.537181 -81.029366 9.881204 -2.030359 16.304619 22.723194 11.452267 1.908876 -1.189946 -14.456941 5.118774 11.588413 1.835788 1.477374 22.589153 -6.320641 -0.395158 10.227518 -0.314208 19.298082 
-1.776522 52.432545 -1.838550 -3.926022 0.633276 5.786620 0.000000 0.000000 0.000000 19.268103 -0.414838 5.587341 19.815897 -3.535750 -0.342241 -25.574268 7.908134 7.036773 -5.155905 0.646604 24.937960 -72.688652 -6.117564 -10.850185 -51.585476 -3.797836 80.904350 -15.853366 -5.757442 -56.680573 -10.467687 6.015350 25.000000 48.540493 14.949114 57.385807 47.227669 -41.803833 39.390850 36.375061 -4.634404 -81.064949 11.534732 -1.383175 16.421661 22.563280 11.465594 1.921299 -0.721956 -14.935950 5.267097 11.981761 2.646415 1.717275 24.535461 -6.683231 -0.306756 9.491156 -0.209624 20.835764 
-1.740372 52.649128 -1.145378 -5.626019 1.088483 5.634988 0.000000 0.000000 0.000000 19.454557 -0.681401 5.511172 19.989159 -3.818680 -0.356634 -25.658484 8.266862 7.277816 -4.155318 -0.688688 24.770662 -71.448257 -4.232161 -11.638834 -49.358803 -4.373026 79.772652 -15.694667 -5.555570 -56.809185 -10.899924 6.862829 25.000000 48.019718 12.320325 57.523052 47.770515 -41.275394 39.695156 36.592846 -4.241235 -81.085182 14.859377 -1.551156 16.157543 21.647287 11.158709 1.905862 0.024282 -14.976088 4.547968 14.726768 2.324416 1.598554 24.320719 -6.497096 -0.294637 9.676968 -0.370173 20.992048 
-1.700996 52.904747 -0.657423 -6.936791 1.735259 5.414011 0.000000 0.000000 0.000000 19.750429 -1.176488 5.388061 20.152340 -4.067441 -0.378587 -25.835962 8.550606 7.402009 -3.430482 -1.833653 24.667738 -70.210152 -2.865664 -12.409512 -47.555233 -5.114245 78.380875 -15.517869 -5.079258 -57.007496 -11.110738 7.403000 25.000000 47.581482 10.592740 57.541298 48.271923 -40.799915 40.552540 36.591732 -4.143585 -81.074692 17.341902 -1.961825 15.832992 20.876205 10.670729 1.854505 0.845553 -14.760889 4.169533 17.501740 1.512843 1.341323 22.824018 -5.994678 -0.309932 12.040371 0.407697 23.342838 
-1.698012 53.191616 -0.251849 -7.837423 2.118713 5.275037 0.000000 0.000000 0.000000 19.733589 -1.498359 5.312133 20.312046 -4.174937 -0.385827 -26.031303 8.709528 7.428073 -2.846581 -2.558927 24.624981 -69.089310 -1.651757 -13.104563 -45.889614 -6.237717 77.093735 -15.390079 -4.370331 -57.261608 -11.434172 7.652459 25.000000 47.355015 9.294438 57.598965 48.766106 -40.143127 41.577774 36.591957 -4.163116 -81.046112 19.132675 -2.057049 15.623025 20.051291 10.024667 1.782857 2.063876 -14.652136 4.485625 19.565161 1.005325 1.176890 21.451273 -5.644117 -0.346181 12.589781 -0.283284 18.848110 
-1.723957 53.601913 0.177382 -8.443243 2.105854 5.293164 0.000000 0.000000 0.000000 19.195904 -1.457218 5.352019 20.614454 -4.128338 -0.385451 -26.067211 8.673336 7.336701 -2.403739 -2.871687 24.601858 -68.262016 -0.363751 -13.669460 -44.059959 -7.580431 76.688019 -15.372477 -3.607251 -57.487064 -12.002509 7.602547 25.000000 47.206367 7.950998 57.700809 49.462326 -38.947342 42.570778 36.875305 -4.423632 -81.061501 20.709827 -1.609841 15.636496 18.957966 9.341202 1.663337 5.329710 -15.324972 5.195190 21.117483 0.976304 1.162394 20.211472 -5.409739 -0.411382 15.233103 1.162309 20.489426 
-1.730246 53.999409 0.444842 -8.932128 2.151350 5.277427 0.000000 0.000000 0.000000 18.941925 -1.459451 5.368246 20.985338 -4.078355 -0.380078 -26.042492 8.627160 7.383811 -2.235889 -3.213646 24.584196 -67.733597 0.509925 -14.044055 -43.153542 -8.235539 77.255417 -15.507161 -3.427054 -57.497120 -12.249063 7.699830 25.000000 47.010151 7.054019 57.707264 49.690037 -38.196186 43.045918 37.214565 -4.507888 -81.090714 21.892969 -1.297771 15.615846 17.940245 8.710175 1.587878 7.765671 -16.020765 7.282885 22.163094 0.859286 1.121446 19.406700 -5.246157 -0.447477 17.495152 2.069754 21.331520 
-1.724567 54.478260 0.681493 -9.637837 2.455130 5.228127 0.000000 0.000000 0.000000 19.052042 -1.735433 5.299209 21.403889 -3.984429 -0.379292 -26.084743 8.460531 7.515706 -2.219338 -3.732468 24.564352 -67.176598 1.394408 -14.447947 -42.705612 -8.732423 78.024406 -15.680311 -3.502514 -57.396114 -12.385348 7.996207 25.000000 46.699627 6.346924 57.626225 49.708584 -37.567196 43.488804 37.389553 -4.603737 -81.105278 23.198673 -1.277473 15.490454 16.829565 8.023646 1.503286 10.434318 -16.402990 8.822637 23.421537 0.439465 0.993893 18.511040 -4.962867 -0.447864 19.845594 1.890076 19.343086 
-1.726998 55.153217 0.942169 -10.629544 2.956292 5.041367 0.000000 0.000000 0.000000 19.477959 -2.209754 5.165778 21.765665 -3.962049 -0.382639 -26.221422 8.438641 7.637840 -2.070246 -4.453582 24.536036 -66.477005 2.538998 -14.958966 -42.763428 -9.406574 79.004089 -15.892904 -3.814090 -57.204185 -12.460807 8.394933 25.000000 46.382885 5.786103 57.530910 49.520042 -36.976593 44.133369 37.700718 -4.795953 -81.137688 24.754648 -1.454330 15.247953 15.525777 7.313134 1.434205 14.472431 -16.127234 7.962016 25.022938 -0.283441 0.776067 17.293892 -4.599729 -0.470468 23.705410 2.046733 17.004627 
-1.734384 55.549099 1.097952 -10.855604 3.069186 4.968698 0.000000 0.000000 0.000000 19.303076 -2.285874 5.166279 21.747843 -4.023185 -0.387179 -26.173309 8.548870 7.514802 -1.714614 -4.535017 24.545181 -66.394043 3.216712 -15.089044 -43.179150 -9.981179 79.848465 -16.230099 -3.954650 -57.071808 -12.788916 8.156287 25.000000 46.629581 5.660686 57.670738 49.443954 -36.564774 44.436581 38.108284 -4.987419 -81.191208 25.202301 -1.463623 15.189357 14.780924 7.077692 1.417944 17.748896 -16.122971 8.429769 25.535471 -0.664577 0.672749 16.452122 -4.345367 -0.485481 26.147142 2.557874 15.277878 
